# xmcd
#
# Track frame offsets:
#	150
#	17019
#	33730
#	50744
#	69626
#	84129
#	102785
#	121183
#	134685
#	150690
#	169967
#	186741
#
# Disc length: 2681 seconds
#
# Revision: 1
# Processed by: cddbd v1.5.2PL0 Copyright (c) Steve Scherf et al.
# Submitted via: EasyCDDAExtractor 6.2.0.3
#
DISCID=a80a770c
DTITLE=Bjorn Berge - We're Gonna Groove
DYEAR=2006
DGENRE=Blues
TTITLE0=Had A Suspicion
TTITLE1=Mable Blues
TTITLE2=Accused (Of Counting On You)
TTITLE3=A Little Follow Through
TTITLE4=The Darker Side Of me
TTITLE5=Walk Away
TTITLE6=Knock You Down
TTITLE7=We're Gonna Groove
TTITLE8=Here Comes The Devil
TTITLE9=Out Of Time
TTITLE10=You've Been Had
TTITLE11=Have A Cigarette And A Smile
EXTD=
EXTT0=
EXTT1=
EXTT2=
EXTT3=
EXTT4=
EXTT5=
EXTT6=
EXTT7=
EXTT8=
EXTT9=
EXTT10=
EXTT11=
PLAYORDER=
